<mxfile host="app.diagrams.net" modified="2024-02-21T06:50:45.542Z" agent="Mozilla/5.0 (Macintosh; Intel Mac OS X 10_15_7) AppleWebKit/537.36 (KHTML, like Gecko) Chrome/121.0.0.0 Safari/537.36" version="22.1.20" etag="SDx-I9PoFc9W2Kw_eIk-" type="github">
  <diagram name="Page-1" id="GP_RPFWXpWypaUvvrivx">
    <mxGraphModel>
      <root>
        <mxCell id="0" />
        <mxCell id="1" parent="0" />
      </root>
    </mxGraphModel>
  </diagram>
</mxfile>
